<svg xmlns="http://www.w3.org/2000/svg" width="157" height="25.024" viewBox="0 0 157 25.024">
  <g id="Grupo_7" data-name="Grupo 7" transform="translate(-932.852 -476.131)">
    <rect id="Rectángulo_4" data-name="Rectángulo 4" width="2.229" height="2.006" transform="translate(1075.793 491.595)" fill="#fff"/>
    <g id="Grupo_6" data-name="Grupo 6" transform="translate(932.852 476.131)">
      <path id="Trazado_21" data-name="Trazado 21" d="M936.919,511.2v3.385h-4.067V495.034h6.8a7.832,7.832,0,0,1,8.108,7.688,7.633,7.633,0,0,1-4.408,7.347l4.225,4.513h-5.406l-3.2-3.385Zm1.68-3.674c3.227,0,4.986-1.574,4.986-4.487a4,4,0,0,0-4.2-4.329h-2.467v8.817Z" transform="translate(-932.852 -490.82)" fill="#fff"/>
      <path id="Trazado_22" data-name="Trazado 22" d="M1006.42,514.583V495.034h10.391v3.674h-6.324v3.647h7.347V506h-7.347v4.907h8.056v3.674Z" transform="translate(-990.02 -490.82)" fill="#fff"/>
      <path id="Trazado_23" data-name="Trazado 23" d="M1067.982,514.583V495.034h6.665a8.1,8.1,0,0,1,8.187,7.872c0,5.012-3.542,8.712-8.449,8.712h-2.335v2.965Zm6.3-6.665a4.254,4.254,0,0,0,4.382-4.592c0-2.283-1.5-4.618-4.146-4.618h-2.466v9.21Z" transform="translate(-1037.859 -490.82)" fill="#fff"/>
      <path id="Trazado_24" data-name="Trazado 24" d="M1134.117,510.77h-9.473l-1.26,2.624h-4.2L1129.5,493.5l10.339,19.89H1135.4ZM1126.4,507.1h5.93l-2.991-6.088Z" transform="translate(-1077.649 -489.631)" fill="#fff"/>
      <path id="Trazado_25" data-name="Trazado 25" d="M1217.657,495.034v15.875h6.089v3.674H1213.59V495.034Z" transform="translate(-1151.008 -490.82)" fill="#fff"/>
      <path id="Trazado_26" data-name="Trazado 26" d="M1277.251,510.77h-9.473l-1.259,2.624h-4.2l10.313-19.89,10.338,19.89h-4.435Zm-7.715-3.674h5.93l-2.991-6.088Z" transform="translate(-1188.876 -489.631)" fill="#fff"/>
      <path id="Trazado_27" data-name="Trazado 27" d="M1370.63,493.754h4.067v19.89l-13.907-11.572V513.3h-4.067V493.387l13.907,11.677Z" transform="translate(-1262.235 -489.54)" fill="#fff"/>
      <path id="Trazado_28" data-name="Trazado 28" d="M1464.662,504.761a10.184,10.184,0,0,1-10.076,8.974,10.116,10.116,0,1,1,8.607-15.482l-3.175,2.257a6.546,6.546,0,0,0-5.432-3.123,6.221,6.221,0,1,0,5.956,7.373Z" transform="translate(-1330.472 -489.631)" fill="#fff"/>
      <g id="Grupo_5" data-name="Grupo 5" transform="translate(131.167)">
        <path id="Trazado_29" data-name="Trazado 29" d="M1534.179,478.075l11.453,22.189h-9.268a2.791,2.791,0,0,1,2.64-1.895h3.517l-.671-1.3-6.879-13.327-.793-1.535-.792,1.535-6.879,13.327-.672,1.3h6.158a2.792,2.792,0,0,1-2.64,1.895h-6.628l11.453-22.189m0-1.944-12.916,25.024h8.091a3.678,3.678,0,0,0,3.678-3.678H1527.3l6.879-13.327,6.879,13.327H1539a3.678,3.678,0,0,0-3.678,3.678H1547.1l-12.917-25.024Z" transform="translate(-1521.263 -476.131)" fill="#fff"/>
      </g>
      <path id="Trazado_30" data-name="Trazado 30" d="M1570.839,542.938a4.476,4.476,0,0,0-3.331-1.878c-1.723,0-3.258,1.791-3.323,1.867a.14.14,0,0,0,0,.181c.064.076,1.6,1.867,3.323,1.867s3.258-1.791,3.323-1.867A.14.14,0,0,0,1570.839,542.938Zm-3.331.732a.652.652,0,1,1,.653-.653A.653.653,0,0,1,1567.507,543.67Z" transform="translate(-1423.424 -526.586)" fill="#ff0025"/>
    </g>
  </g>
</svg>
