<svg xmlns="http://www.w3.org/2000/svg" viewBox="0 0 704.3 112.26"><defs><style>.cls-1{fill:#fff;}.cls-2{fill:#ec1e2e;}</style></defs><title>Asset 3</title><g id="Layer_2" data-name="Layer 2"><g id="Layer_1-2" data-name="Layer 1"><rect class="cls-1" x="641.23" y="69.37" width="10" height="9"/><path class="cls-1" d="M18.25,91.41V106.6H0V18.9H30.49c20.6,0,36.37,15.42,36.37,34.49,0,15.78-7.53,27.31-19.77,33L66,106.6H41.79L27.43,91.41Zm7.53-16.48c14.48,0,22.37-7.06,22.37-20.12,0-10.72-6.36-19.43-18.84-19.43H18.25V74.93Z"/><polygon class="cls-1" points="73.57 106.6 73.57 18.9 120.18 18.9 120.18 35.38 91.81 35.38 91.81 51.75 124.77 51.75 124.77 68.11 91.81 68.11 91.81 90.12 127.95 90.12 127.95 106.6 73.57 106.6"/><path class="cls-1" d="M135.13,106.6V18.9H165c21.54,0,36.73,17.54,36.73,35.32,0,22.48-15.9,39.08-37.91,39.08H153.38v13.3Zm28.25-29.9c12.71,0,19.66-9.3,19.66-20.6,0-10.24-6.71-20.72-18.6-20.72H153.38V76.7Z"/><path class="cls-1" d="M253.31,94.83H210.82l-5.65,11.77H186.33L232.6,17.37,279,106.6H259.08Zm-34.6-16.48h26.6L231.89,51Z"/><polygon class="cls-1" points="298.98 18.9 298.98 90.12 326.3 90.12 326.3 106.6 280.74 106.6 280.74 18.9 298.98 18.9"/><path class="cls-1" d="M396.45,94.83H354L348.3,106.6H329.47l46.26-89.23,46.38,89.23h-19.9ZM361.84,78.35h26.6L375,51Z"/><polygon class="cls-1" points="486.26 18.9 504.51 18.9 504.51 108.13 442.12 56.22 442.12 106.6 423.87 106.6 423.87 17.26 486.26 69.64 486.26 18.9"/><path class="cls-1" d="M602,67.87a45.68,45.68,0,0,1-45.2,40.26,45.38,45.38,0,1,1,38.61-69.45L581.13,48.8c-6.35-9.41-15.3-14-24.36-14-14.72,0-26.37,12.48-26.37,28s11.65,27.78,26.37,27.78c13.18,0,24.25-9.53,26.72-22.72Z"/><path class="cls-1" d="M646.35,8.72l51.38,99.54H656.16A12.51,12.51,0,0,1,668,99.76h15.78l-3-5.84L649.91,34.14l-3.56-6.89-3.55,6.89L611.94,93.92l-3,5.84h27.62a12.53,12.53,0,0,1-11.84,8.5H595L646.35,8.72m0-8.72L588.41,112.26h36.3a16.5,16.5,0,0,0,16.5-16.5H615.5L646.35,36l30.86,59.79H668a16.5,16.5,0,0,0-16.5,16.5h52.8Z"/><path class="cls-2" d="M661.3,73.35c-.24-.34-5.94-8.42-14.95-8.42-7.73,0-14.61,8-14.9,8.37a.62.62,0,0,0,0,.81c.29.35,7.17,8.38,14.9,8.38s14.62-8,14.91-8.38a.63.63,0,0,0,0-.76m-14.95,3.29a2.93,2.93,0,1,1,2.93-2.93,2.93,2.93,0,0,1-2.93,2.93"/></g></g></svg>