<svg id="Grupo_6" data-name="Grupo 6" xmlns="http://www.w3.org/2000/svg" width="230" height="36.66" viewBox="0 0 230 36.66">
  <path id="Trazado_21" data-name="Trazado 21" d="M938.811,518.714v4.959h-5.959V495.034h9.956c6.727,0,11.879,5.036,11.879,11.263,0,5.151-2.46,8.919-6.458,10.764l6.189,6.612H946.5l-4.69-4.959Zm2.46-5.382c4.728,0,7.3-2.306,7.3-6.573,0-3.5-2.076-6.343-6.151-6.343h-3.613v12.916Z" transform="translate(-932.852 -488.861)" fill="#fff"/>
  <path id="Trazado_22" data-name="Trazado 22" d="M1006.42,523.673V495.034h15.223v5.382h-9.264v5.343h10.763V511.1h-10.763v7.189h11.8v5.382Z" transform="translate(-982.395 -488.861)" fill="#fff"/>
  <path id="Trazado_23" data-name="Trazado 23" d="M1067.982,523.673V495.034h9.764a11.868,11.868,0,0,1,11.994,11.532c0,7.342-5.189,12.763-12.378,12.763h-3.421v4.344Zm9.226-9.764c4.152,0,6.42-3.037,6.42-6.727,0-3.344-2.191-6.766-6.074-6.766h-3.613v13.492Z" transform="translate(-1023.853 -488.861)" fill="#fff"/>
  <path id="Trazado_24" data-name="Trazado 24" d="M1141.059,518.8h-13.878l-1.845,3.844h-6.151l15.107-29.139,15.146,29.139h-6.5Zm-11.3-5.382h8.688l-4.382-8.919Z" transform="translate(-1058.335 -487.831)" fill="#fff"/>
  <path id="Trazado_25" data-name="Trazado 25" d="M1219.548,495.034v23.257h8.92v5.382H1213.59V495.034Z" transform="translate(-1121.91 -488.861)" fill="#fff"/>
  <path id="Trazado_26" data-name="Trazado 26" d="M1284.193,518.8h-13.877l-1.845,3.844h-6.151l15.108-29.139,15.146,29.139h-6.5Zm-11.3-5.382h8.688L1277.2,504.5Z" transform="translate(-1154.726 -487.831)" fill="#fff"/>
  <path id="Trazado_27" data-name="Trazado 27" d="M1377.1,493.925h5.958v29.139l-20.374-16.953v16.453h-5.958V493.387l20.374,17.106Z" transform="translate(-1218.301 -487.752)" fill="#fff"/>
  <path id="Trazado_28" data-name="Trazado 28" d="M1474.02,510a14.919,14.919,0,0,1-14.762,13.147,14.819,14.819,0,1,1,12.609-22.68l-4.651,3.306a9.59,9.59,0,0,0-7.958-4.575,9.113,9.113,0,1,0,8.726,10.8Z" transform="translate(-1277.436 -487.831)" fill="#fff"/>
  <g id="Grupo_5" data-name="Grupo 5" transform="translate(192.156)">
    <path id="Trazado_29" data-name="Trazado 29" d="M1540.185,478.979l16.778,32.506h-13.577a4.089,4.089,0,0,1,3.868-2.776h5.153l-.984-1.906-10.077-19.523-1.161-2.249-1.161,2.249L1528.947,506.8l-.984,1.906h9.021a4.09,4.09,0,0,1-3.868,2.776h-9.709l16.778-32.506m0-2.848-18.922,36.66h11.854a5.388,5.388,0,0,0,5.388-5.388h-8.4l10.077-19.523,10.077,19.523h-3.009a5.388,5.388,0,0,0-5.388,5.388h17.242l-18.922-36.66Z" transform="translate(-1521.263 -476.131)" fill="#fff"/>
  </g>
  <path id="Trazado_30" data-name="Trazado 30" d="M1573.948,543.811c-.077-.112-1.938-2.751-4.88-2.751-2.524,0-4.773,2.623-4.868,2.735a.2.2,0,0,0,0,.265c.095.112,2.344,2.735,4.868,2.735s4.773-2.624,4.867-2.735A.206.206,0,0,0,1573.948,543.811Zm-4.88,1.073a.956.956,0,1,1,.956-.956A.956.956,0,0,1,1569.068,544.883Z" transform="translate(-1357.99 -519.856)" fill="#ff0025"/>
</svg>
